<svg width="40" height="30" viewBox="0 0 40 30" fill="none" xmlns="http://www.w3.org/2000/svg">
<path id="Vector" d="M39.1691 11.8114C38.2685 11.1866 36.2049 10.9523 34.5916 11.2647C34.4041 9.70263 33.5411 8.33598 32.0402 7.12538L31.1774 6.50055L30.5769 7.39874C29.8266 8.57029 29.4514 10.2105 29.5639 11.7725C29.6014 12.3191 29.789 13.2954 30.3518 14.1545C29.8266 14.4669 28.7385 14.8575 27.3128 14.8575H0.185931L0.110951 15.1699C-0.151789 16.7318 -0.151789 21.6131 2.92486 25.3619C5.25109 28.2125 8.70295 29.6574 13.2428 29.6574C23.0729 29.6574 30.3518 24.9322 33.7662 16.3803C35.1169 16.4194 38.0059 16.3803 39.4693 13.4514C39.5068 13.3733 39.5817 13.2171 39.8443 12.6315L39.9944 12.3191L39.1691 11.8114ZM21.8723 0.799316H17.7453V4.70433H21.8723V0.799316ZM21.8723 5.48536H17.7453V9.39038H21.8723V5.48521V5.48536ZM16.9947 5.48536H12.8677V9.39038H16.9947V5.48521V5.48536ZM12.1172 5.48536H7.99002V9.39038H12.1172V5.48521V5.48536ZM7.2396 10.1714H3.11246V14.0764H7.23945V10.1713L7.2396 10.1714ZM12.1172 10.1714H7.99002V14.0764H12.1172V10.1713V10.1714ZM16.9947 10.1714H12.8677V14.0764H16.9947V10.1713V10.1714ZM21.8724 10.1714H17.7451V14.0764H21.8724V10.1713V10.1714ZM26.75 10.1714H22.6227V14.0764H26.75V10.1713V10.1714Z" fill="#2396ED"/>
</svg>
