<svg width="25" height="26" viewBox="0 0 25 26" fill="none" xmlns="http://www.w3.org/2000/svg">
<g id="outlook">
<path id="Vector" d="M15.2219 6.4292V10.7081L16.7187 11.6495C16.7728 11.6614 16.8288 11.6614 16.8828 11.6495L23.3187 7.31045C23.314 7.09986 23.237 6.89731 23.1006 6.73683C22.9641 6.57635 22.7766 6.46772 22.5695 6.4292H15.2219Z" fill="white"/>
<path id="Vector_2" d="M15.2219 12.3042L16.5867 13.2417C16.6506 13.2806 16.724 13.3012 16.7988 13.3012C16.8737 13.3012 16.947 13.2806 17.0109 13.2417C16.7766 13.3831 23.318 9.04016 23.318 9.04016V16.9042C23.335 17.0636 23.3171 17.2247 23.2653 17.3764C23.2136 17.5281 23.1293 17.6666 23.0185 17.7824C22.9076 17.8981 22.7728 17.9882 22.6234 18.0463C22.4741 18.1045 22.3138 18.1293 22.1539 18.1191H15.2211V12.3042H15.2219ZM8.15625 10.3316C7.92948 10.3305 7.70663 10.3908 7.51133 10.506C7.31603 10.6213 7.15554 10.7872 7.04688 10.9863C6.75009 11.5139 6.60769 12.1144 6.63594 12.7191C6.6051 13.3225 6.74769 13.9222 7.04688 14.4472C7.15509 14.638 7.31162 14.7971 7.50075 14.9082C7.68988 15.0194 7.90495 15.0789 8.12434 15.0806C8.34372 15.0824 8.55971 15.0263 8.75058 14.9182C8.94145 14.81 9.10049 14.6535 9.21172 14.4644C9.50764 13.9418 9.64729 13.3453 9.61406 12.7456C9.64795 12.1272 9.51292 11.5112 9.22344 10.9636C9.11999 10.771 8.96591 10.6104 8.77783 10.499C8.58976 10.3876 8.37483 10.3297 8.15625 10.3316Z" fill="white"/>
<path id="Vector_3" d="M1.68203 4.25574V20.9956L14.4164 23.6659V1.79089L1.68203 4.25574ZM10.2039 15.4557C9.96569 15.7916 9.64894 16.064 9.28127 16.2494C8.9136 16.4347 8.50618 16.5273 8.09453 16.519C7.69324 16.5261 7.29616 16.4363 6.93707 16.257C6.57798 16.0777 6.2675 15.8144 6.03203 15.4893C5.47358 14.7097 5.19422 13.7645 5.23906 12.8065C5.19155 11.8016 5.47596 10.8089 6.04844 9.98152C6.28966 9.63928 6.61138 9.36164 6.98523 9.17308C7.35908 8.98452 7.77358 8.89083 8.19219 8.90027C8.59057 8.89227 8.98483 8.98219 9.34035 9.16213C9.69587 9.34207 10.0018 9.60653 10.2312 9.9323C10.7841 10.7289 11.0587 11.6856 11.0125 12.6542C11.0612 13.6519 10.7767 14.6374 10.2039 15.4557Z" fill="white"/>
</g>
</svg>
